<?xml version="1.0" encoding="UTF-8"?>
<svg version="1.1" viewBox="0 0 968 2048" width="1400" height="2960" xmlns="http://www.w3.org/2000/svg">
<path transform="translate(286,689)" d="m0 0h10l10 4 10 8 10 13 15 24 10 14 8 11 7 8 14 10 13 7 10-3 21-6 25-4h40l25 4 21 6 8 3 7-1 12-7 10-8 8-8 12-17 13-20 9-14 8-10 9-8 9-4 10-1 7 2 7 7 6 10 3 9 1 5v21l-4 17-7 16-8 12-9 11-12 10-14 7-16 5-7 1 11 14 8 13 6 15 3 12 1 8v13l-3 17-5 14-7 13-9 12-6 7h-2v2l-11 9-11 8-18 10-15 6-16 5-24 5-9 1h-37l-21-3-17-4-18-6-21-10-15-10-11-9-12-12-10-14-8-16-5-19-1-8v-12l3-17 6-16 8-14 12-15-12-2-19-7-11-7-10-9-7-8-9-14-7-17-3-11-1-7v-15l3-15 7-12 6-7z" fill="#AD7623"/>
<path transform="translate(476,865)" d="m0 0 20 1 16 3 16 6 13 8 12 12 8 13 5 12v13l-4 9-6 8-10 5-5 1h-8l-16-4-14-7-10-8-9-11-4-2h-8l-6 4-7 7-6 8-14 10-13 5-5 1h-15l-9-3-9-8-4-8-1-4v-13l4-11 7-11 11-11 15-10 15-7 17-5 12-2z" fill="#FED9A7"/>
<path transform="translate(286,689)" d="m0 0h10l10 4 10 8 10 13 15 24 10 14 8 11 7 8 14 10 13 7 10-3 21-6 25-4h40l25 4 21 6 8 3 7-1 12-7 10-8 8-8 12-17 13-20 9-14 8-10 9-8 9-4 10-1 7 2 7 7 6 10 3 9 1 5v21l-4 17-7 16-8 12-9 11-12 10-14 7-16 5-7 1 11 14 8 13 6 15 3 12 1 8v13l-3 17-5 14-7 13-9 12-6 7h-2v2l-11 9-11 8-18 10-15 6-16 5-24 5-9 1h-37l-21-3-17-4-18-6-21-10-15-10-11-9-12-12-10-14-8-16-5-19-1-8v-12l3-17 6-16 8-14 12-15-12-2-19-7-11-7-10-9-7-8-9-14-7-17-3-11-1-7v-15l3-15 7-12 6-7zm2 4-5 2-7 8-4 6-3 10v25l5 17 8 16 7 10 9 10 8 7 8 5 13 5 17 4 25 2 2 1v2h-22l-5 5-10 13-9 17-5 17-1 8v14l3 17 6 15 9 15 11 12 10 10 16 11 21 11 20 7 21 5 14 2 16 1h14l26-3 25-6 20-8 17-9 14-10 13-12 11-14 7-12 6-17 2-11v-19l-3-14-5-13-7-13-8-10-8-8-21 1h-2l1-3 6-1 16-1 21-5 15-6 13-9 7-7 10-14 8-16 4-12 2-11v-13l-2-10-2-6-7-11-6-5h-11l-10 5-7 6-11 15-11 18-15 22-8 10-7 7-10 7-18 10h-3l-4-4-23-7-24-4-13-1h-18l-27 3-24 6-12 5-3 1-17-9-12-9-11-11-16-23-15-24-9-12-7-7-9-5z" fill="#482C02"/>
<path transform="translate(281,699)" d="m0 0h9l5 4 3 7v11l5 12 3 4 5 9 9 12 9 10 10 10 16 11 23 12 8 4-3 7-7 7-7 1-25-2-17-4-15-6-12-9-9-9-10-14-7-15-5-17v-25l4-12 4-6z" fill="#FDD9A7"/>
<path transform="translate(653,703)" d="m0 0h8l6 9 2 7 1 8v13l-3 15-8 19-7 11-9 11-9 8-12 7-18 6-14 3-26 1-6-4-4-5-1-5 8-5 20-10 13-9 11-9 10-10 11-15 6-9 7-15 1-8 1-5 4-5z" fill="#FED9A7"/>
<path transform="translate(309,744)" d="m0 0 4 5 11 14 15 15 16 11 23 12 8 4-3 7-5 4-15-2-20-5-16-7-13-10-8-10-4-10v-15l3-8 2-3h2z" fill="#E7B470"/>
<path transform="translate(628,746)" d="m0 0 4 3 2 8v9l-4 10-7 10-10 9-14 9-20 9-17 6-4-2-4-5-1-5 8-5 20-10 13-9 11-9 10-10 11-15z" fill="#E7B46F"/>
<path transform="translate(489,949)" d="m0 0 4 2 13 13 9 7 1 4h-5l-4-2-8 6-12 5-4 1h-16l-15-5-9-5-2 2-4-1 1-4 22-22h5l3 2h13z" fill="#462B01"/>
<path transform="translate(426,828)" d="m0 0h12l2 4-1 1-14 1-10 4-13 9-9 8-6 8 10-10 14-9 13-4h8l7 3 1 3-1 1-14-1-10 3-12 7-12 11-7 10-3 5h-4v-5l1-3h-3l-1-3 6-9 11-13 10-9 13-8z" fill="#4C2F05"/>
<path transform="translate(511,828)" d="m0 0h13l11 4 12 7 13 12 8 9 7 10-1 4-3 1 2 3-1 4-4-1-10-14-10-10-13-8-10-3h-7l-6 2-2-1v-4l7-3h8l11 3 11 6 12 11 4 3-12-13-12-9-12-6-4-1-13-1-1-3z" fill="#482C03"/>
<path transform="translate(299,715)" d="m0 0 3 2 3 10 10 17 9 12 9 10 11 10 15 10 23 12 5 3v3l-7-1-22-11-12-8-10-8-15-15-11-15-5-9-5-8-3-8v-5z" fill="#422700"/>
<path transform="translate(637,717)" d="m0 0h4l-1 8-8 16-10 15-9 11-11 11-15 11-14 8-18 9h-3l-1-3 8-5 20-10 14-10 13-11 12-14 11-17 7-15z" fill="#412700"/>
<path transform="translate(426,828)" d="m0 0h12l2 4-1 1-14 1-10 4-13 9-9 8-11 14-4 5h-3l-1-3 6-9 11-13 10-9 13-8z" fill="#452A01"/>
<path transform="translate(517,840)" d="m0 0h8l11 3 11 6 12 11 8 9 6 9-1 4-4-1-10-14-10-10-13-8-10-3h-7l-6 2-2-1v-4z" fill="#452A01"/>
<path transform="translate(459,957)" d="m0 0 3 3 3 5 5 4 4 2 1 9h-10l-10-4-8-5 6-7z" fill="#FCD7A5"/>
<path transform="translate(445,903)" d="m0 0 4 1-1 5-5 7-10 6-12 4h-15l-9-3v-4l7 1h17l11-4 8-6z" fill="#4B2E03"/>
<path transform="translate(491,957)" d="m0 0 7 6 6 5-5 5-12 6-8 1v-10l7-4 4-7z" fill="#FDD8A5"/>
<path transform="translate(501,903)" d="m0 0 4 1 6 8 10 6 7 2h16l8-1v4l-7 3h-15l-12-3-10-6-7-8-1-4z" fill="#4A2E03"/>
<path transform="translate(512,833)" d="m0 0h11l13 5 11 8 10 9 7 8-1 2-12-12-11-7-11-4-4-1h-8l-6 1-1-7z" fill="#FBD4A0"/>
<path transform="translate(425,833)" d="m0 0h11l1 1v5l-2 2h-11l-13 4-11 7-10 9-4 3 2-4 8-9 14-11 12-6z" fill="#FBD5A1"/>
<path transform="translate(498,914)" d="m0 0 5 1 8 6v4l-6-1-5-4-2-3z" fill="#4B2F03"/>
<path transform="translate(447,913)" d="m0 0 3 1-1 4-7 7-4-1 1-4z" fill="#4B2E03"/>
<path transform="translate(402,846)" d="m0 0m-1 1m-1 1m-1 1m-1 1m-2 1 3 1-12 12v-3z" fill="#F9D29D"/>
</svg>
