<?xml version="1.0" encoding="UTF-8"?>
<svg version="1.1" viewBox="0 0 968 2048" width="1400" height="2960" xmlns="http://www.w3.org/2000/svg">
<path transform="translate(449,775)" d="m0 0h40l25 4 18 5h3l5-5 3-1h13l12 5 12 7 13 10 12 11 10 10 7 10 9 16 6 17 4 18 2 15v34l-2 15-4 15-6 16-8 17-8 11-9 8-11 5h-12l-10-5-6-7-4-10-1-10-17 8-18 6-22 5-15 2h-37l-21-3-17-4-18-6-17-8-5 18-6 8-5 4-9 3h-8l-10-4-8-6-7-7-9-16-10-25-4-16-2-16v-29l4-27 5-17 10-21 8-11 9-10 10-10 17-13 15-9 13-4 10 1 5 3 3 2 23-6z" fill="#AD7623"/>
<path transform="translate(449,775)" d="m0 0h40l25 4 18 5h3l5-5 3-1h13l12 5 12 7 13 10 12 11 10 10 7 10 9 16 6 17 4 18 2 15v34l-2 15-4 15-6 16-8 17-8 11-9 8-11 5h-12l-10-5-6-7-4-10-1-10-17 8-18 6-22 5-15 2h-37l-21-3-17-4-18-6-17-8-5 18-6 8-5 4-9 3h-8l-10-4-8-6-7-7-9-16-10-25-4-16-2-16v-29l4-27 5-17 10-21 8-11 9-10 10-10 17-13 15-9 13-4 10 1 5 3 3 2 23-6zm11 4-27 3-24 6-19 7-18 10-16 12-13 12-11 15-8 17-4 14-1 8v14l3 17 5 13 8 14 8 10 15 15 16 11 21 11 20 7 21 5 14 2 16 1h14l26-3 21-5 17-6 19-9 15-10 14-12 9-10 9-14 5-10 4-12 2-11v-14l-2-16-6-16-7-13-8-10-13-13-13-10-17-10-14-7-26-8-24-4-13-1z" fill="#462A01"/>
<path transform="translate(466,856)" d="m0 0h22l18 3 15 5 13 7 12 11 6 7 8 14 2 6v15l-4 9-7 8-8 4-6 1h-8l-16-4-15-8-10-9-9-10-2-1h-8l-7 4-9 10-7 8-11 7-13 5-4 1h-15l-11-4-6-5-5-9-1-4v-14l4-11 7-11 10-10 15-10 15-7 16-5z" fill="#FED9A8"/>
<path transform="translate(545,782)" d="m0 0h8l11 4 12 7 17 13 7 7 7 6 10 13 8 14 6 14 5 20 3 25v18l-2 19-4 16-8 21-9 17-9 10-9 6-3 1h-12l-8-5-4-5-4-11-1-9 11-7 11-9 10-9 11-14 6-10 2-5h1l-1 10-6 21-5 13-9 17-9 12v3l4-2 8-10 11-21 8-24 4-20 2-21v-23l-3-16-6-16-8-14-9-11-7-7-14-11-10-7-18-10-11-5 1-3z" fill="#AD7623"/>
<path transform="translate(386,783)" d="m0 0h11l3 2v2l-16 7-16 9-13 10-12 10-11 14-9 16-6 18-2 13v12l1 22 3 20 6 23 6 15 9 17 9 12 3 1v-4l-9-12-10-19-8-24-3-14v-5l3 4 8 13 8 10 13 13 14 10 6 4-1 13-4 10-8 7-5 2h-10l-10-5-11-11-10-19-8-21-4-18-1-7v-36l3-20 5-18 7-16 9-14 11-13 10-9 10-8 15-10 11-5z" fill="#AD7623"/>
<path transform="translate(485,938)" d="m0 0 5 1 13 18 6 9v3l-5-1-2-1-5 2-4 3-7-1-5-3-9 4-6-2-4-2-7 4-7-2-2-2h-5l-2 2-4-1 2-5 8-11 11-14h5l4 2h12z" fill="#452901"/>
<path transform="translate(322,928)" d="m0 0 3 4 8 13 8 10 13 13 14 10 6 4-1 13-4 10-6 6-5-1-5-5-2-4-8-11-10-19-8-24-3-14z" fill="#FED9A8"/>
<path transform="translate(617,929)" d="m0 0h1l-1 10-6 21-5 13-9 17-9 12 1 5-5 5-5-1-7-6-4-9-2-13 11-7 11-9 10-9 11-14 6-10z" fill="#FED9A8"/>
<path transform="translate(487,813)" d="m0 0 3 1 6 12 8 10 9 9 13 8 17 7 15 5 2 3-1 2-8-1-18-6-19-10-11-9-10-12-8-15v-3z" fill="#462A01"/>
<path transform="translate(454,814)" d="m0 0 4 1-1 5-7 13-10 12-13 10-16 8-13 5-13 3-1-5 26-9 17-9 11-9 9-12z" fill="#472B02"/>
<path transform="translate(495,812)" d="m0 0 4 1 7 12 10 11 12 9 21 10 6 3-2 4-8-2-16-8-11-7-12-11-10-14-2-4z" fill="#482C02"/>
<path transform="translate(445,813)" d="m0 0 4 1-1 5-8 12-7 8-11 9-10 6-15 7-8 1v-4l13-6 14-7 9-7 7-6 9-12z" fill="#482C02"/>
<path transform="translate(520,896)" d="m0 0h19l13 4v4l-3 1-11-3h-17l-11 4-9 6-6 7-4 4-3-2 2-5 7-8 9-7 10-4z" fill="#523305"/>
<path transform="translate(409,896)" d="m0 0h9l13 3 9 5 10 9 4 6v4l-5-1-7-9-10-7-9-3-12-1-12 2-8 1-1-4 8-3z" fill="#523305"/>
<path transform="translate(450,814)" d="m0 0 3 1-3 9-8 11-5 6-10 8-19 10-16 5v-2l18-8 11-6 10-9 5-5 6-7z" fill="#FED9A8"/>
<path transform="translate(456,946)" d="m0 0 2 1 4 8 8 4 1 7-5-2h-7l-4 3-5-1-5-4 2-4z" fill="#FED9A8"/>
<path transform="translate(492,814)" d="m0 0h2l7 12 9 11 12 10 16 9 10 5-2 1-16-6-14-8-10-9-9-10-6-10z" fill="#FED9A8"/>
<path transform="translate(488,946)" d="m0 0 5 5 7 10-3 2-5 4-4-1-3-2h-10v-5l6-3 6-8z" fill="#FED9A8"/>
<path transform="translate(503,889)" d="m0 0h4l-1 5-8 6-6 8-2 4h-3l-1-4 7-11 7-6z" fill="#583807"/>
<path transform="translate(436,890)" d="m0 0 6 1 8 7 6 9v5h-4l-6-10-7-6-4-3z" fill="#533405"/>
<path transform="translate(659,877)" d="m0 0 3 2 2 11v11l-2 7-4-1v-22l-1-6z" fill="#503204"/>
<path transform="translate(281,882)" d="m0 0 3 1-1 12v18l-4-1-1-4v-16l2-9z" fill="#4A2D02"/>
<path transform="translate(272,881)" d="m0 0 2 1v25l-4 1-2-6 1-16 1-4z" fill="#4F3104"/>
<path transform="translate(668,877)" d="m0 0 4 1 1 5v18l-1 2h-4v-17l-1-8z" fill="#472C02"/>
<path transform="translate(431,917)" d="m0 0h7l8 4v4l-6-1-9-3z" fill="#523305"/>
<path transform="translate(505,916)" d="m0 0h6v4l-12 5-3-3 3-3z" fill="#573707"/>
</svg>
