<?xml version="1.0" encoding="UTF-8"?>
<svg version="1.1" viewBox="0 0 968 2048" width="1400" height="2960" xmlns="http://www.w3.org/2000/svg">
<path transform="translate(294,719)" d="m0 0h11l10 4 8 7 6 10 4 13 3 28 2 4 3 1h25l18 1 11 1 21-7 25-5 8-1h40l25 4 25 7 9 3 15-2h35l5-3 2-15 2-17 5-14 6-8 8-7 7-3h14l10 5 7 8 5 12 2 13v15l-3 16-5 14-8 11-8 7-11 5-11 3-7 1h-15l9 13 8 16 4 13 2 13v13l-3 17-5 14-7 13-9 12-6 7h-2v2l-11 9-11 8-18 10-15 6-16 5-24 5-9 1h-37l-21-3-17-4-18-6-21-10-15-10-11-9-12-12-10-14-8-16-5-19-1-8v-12l3-17 6-16 8-14 5-7-17-1-16-4-12-6-7-6-7-10-5-13-3-14v-22l3-14 4-8 8-9z" fill="#AD7623"/>
<path transform="translate(468,817)" d="m0 0h15l21 3 4 1v2l-24 5-1 3h7l36-7 18-2h5l1 3-46 6-15 3v3l16-2 21-3h7l12 11 6 7 8 14 3 10v8l-3 10-7 9-6 4-7 2h-10l1-10-4-1-29-1-10-9-9-10-9-1-6 3-8 8-8 10-10 7-14 6-5 1h-18l-12-6-6-8-3-9v-11l3-10 6-11 14-14 10-7 5-1 26 4h6v-3l-24-4-40-5 1-2h16l25 4 25 5h3v-3l-13-3-5-1v-2l15-4z" fill="#FEDAA9"/>
<path transform="translate(294,719)" d="m0 0h11l10 4 8 7 6 10 4 13 3 28 2 4 3 1h25l18 1 11 1 21-7 25-5 8-1h40l25 4 25 7 9 3 15-2h35l5-3 2-15 2-17 5-14 6-8 8-7 7-3h14l10 5 7 8 5 12 2 13v15l-3 16-5 14-8 11-8 7-11 5-11 3-7 1h-15l9 13 8 16 4 13 2 13v13l-3 17-5 14-7 13-9 12-6 7h-2v2l-11 9-11 8-18 10-15 6-16 5-24 5-9 1h-37l-21-3-17-4-18-6-21-10-15-10-11-9-12-12-10-14-8-16-5-19-1-8v-12l3-17 6-16 8-14 5-7-17-1-16-4-12-6-7-6-7-10-5-13-3-14v-22l3-14 4-8 8-9zm-1 5-6 3-7 8-4 9-2 10v22l4 16 7 14 6 7 10 6 12 4 5 1h19l19-4 12-5h2l1 4-27 9-10 13-9 17-5 17-1 8v14l3 17 6 15 9 15 11 12 10 10 16 11 21 11 20 7 21 5 14 2 16 1h14l26-3 25-6 20-8 17-9 14-10 14-13 10-13 6-10 6-15 3-15v-19l-3-14-5-13-7-13-8-10-4-4-16-5-9-3v-5l20 7 16 3h13l12-2 14-6 10-9 8-16 3-11 1-7v-17l-3-14-5-10-8-7-7-2-10 1-8 4-7 8-5 11-3 15-2 21-3 5-4 2-44 1-24 5 1-3 3-1v-2l-18-6-20-4-21-2h-18l-27 3-24 6-7 3 3 5-17-4-9-1h-38l-7-3-3-7-2-23-3-12-6-12-9-8-5-2z" fill="#492D02"/>
<path transform="translate(283,733)" d="m0 0h6l1 4 6 4 3 7v32l4 11 9 10 14 7 10 2h17l24-3 4 1-5 6-5 2-3-1-16 6-15 3h-19l-15-4-9-5-7-6-6-10-5-13-2-10v-22l4-16z" fill="#FFDBAA"/>
<path transform="translate(651,734)" d="m0 0h6l4 4 4 12 1 7v17l-3 15-5 12-6 9-8 7-14 6-12 2h-13l-20-4-12-5h-7l-6-5-1-4 20 3 11 1h11l15-3 11-6 8-8 5-10 1-6v-31l4-6 4-3h2z" fill="#FFDBAA"/>
<path transform="translate(491,895)" d="m0 0h35l5 2-1 6-8 16-5 5-8 4-12 3h-39l-13-4-3-1 1-5 11-23 1-1h5l5 2h10l8-3z" fill="#4A2D03"/>
<path transform="translate(646,734)" d="m0 0h4l1 4-6 4-3 5v31l-2 8-4 8-10 10-13 6-12 2h-11l-25-3-11-3-1-4 4-1 13 3 21 2h8l15-3 8-4 7-6 6-9 1-5v-32l4-8z" fill="#503205"/>
<path transform="translate(290,733)" d="m0 0 5 1 5 4 4 10v9l-1 15 2 12 8 11 9 6 10 3 7 1h12l20-2 14-3 2 1-1 4-9 3-24 3h-17l-13-3-11-6-7-7-5-8-2-7v-32l-3-7-6-4z" fill="#4D3004"/>
<path transform="translate(503,899)" d="m0 0 15 1-4 4-18 12-15 8-7 1-1-7 8-5 6-10 2-3z" fill="#FFDBAA"/>
<path transform="translate(546,863)" d="m0 0 4 2-2 6-6 7-9 5-5 2-13 1-12-3-9-6-1-3h-2l-3-5 1-5 4 1 5 8 9 5 12 2 11-2 8-5 5-6z" fill="#523305"/>
<path transform="translate(391,865)" d="m0 0 5 1 4 6 6 5 6 3 5 1h11l9-3 8-7 4-6 4 2-2 6-5 6-10 6-7 2h-14l-11-4-9-7-4-7z" fill="#4F3104"/>
<path transform="translate(384,825)" d="m0 0 17 1 38 5 10 2 1 4-1 1-12-1-43-6-10-1-1-4z" fill="#4B2E03"/>
<path transform="translate(543,825)" d="m0 0h12v4l-2 1-27 3-33 5-5-1 1-4 15-3z" fill="#4B2E03"/>
<path transform="translate(391,818)" d="m0 0h10l27 4 25 5 3 2-1 4-14-2-19-4-31-5z" fill="#492D02"/>
<path transform="translate(534,818)" d="m0 0h13v4l-3 1-24 3-30 6h-7v-4l5-2 38-7z" fill="#4B2E03"/>
<path transform="translate(523,902)" d="m0 0 2 1-4 9-6 8-12 5-11 2h-6l4-3 11-6 16-11z" fill="#FFFCF9"/>
<path transform="translate(455,906)" d="m0 0h2l5 8 7 4v8h-12l-8-3 1-6z" fill="#FFDBAA"/>
<path transform="translate(544,822)" d="m0 0h5l1 3-46 6-14 2 1-2 35-7z" fill="#FFDBAA"/>
<path transform="translate(386,823)" d="m0 0h16l25 4 19 4 2 2-23-3-40-5z" fill="#FFDBAA"/>
<path transform="translate(526,889)" d="m0 0h8l4 4 1 9-4 2-1-1-1-9-7-1z" fill="#513305"/>
<path transform="translate(486,871)" d="m0 0 4 2 7 8 3 2-1 4-4-1-5-5-5-6z" fill="#492D02"/>
<path transform="translate(453,872)" d="m0 0 2 1-1 6-9 9-5-1 2-4 6-5 3-5z" fill="#4C2F03"/>
</svg>
