<?xml version="1.0" encoding="UTF-8"?>
<svg version="1.1" viewBox="0 0 968 2048" width="1400" height="2960" xmlns="http://www.w3.org/2000/svg">
<path transform="translate(382,647)" d="m0 0 7 1 8 6 6 9 3 13v16l-4 40-1 20 2 16 4 13v3l17-5 25-4h40l25 4 16 4 1-5 4-16v-29l-4-40v-18l3-13 6-9 9-6h10l15 5 11 9 9 10 9 17 5 16 2 12v23l-3 14-8 17-8 11-11 13-9 8 4 4 13 10 13 12 10 13 8 16 5 15 2 13v13l-3 17-5 14-7 13-9 12-6 7h-2v2l-11 9-11 8-18 10-15 6-16 5-24 5-9 1h-37l-21-3-17-4-18-6-21-10-15-10-11-9-12-12-10-14-8-16-5-19-1-8v-12l3-17 6-16 8-14 8-10 5-6 22-18-12-12-9-10-9-14-6-13-3-14v-24l3-15 4-12 7-14 7-9 9-9 10-6z" fill="#AD7623"/>
<path transform="translate(469,832)" d="m0 0h16l21 3 15 5 15 8 13 12 9 14v2l-3 1-1 4h7v2h-6v3l8 4v11l-5 10-5 6-10 5h-18l-15-5-11-6-10-9-9-10-5-2-9 2-10 10-6 8-11 8-11 5-11 3h-13l-11-4-7-6-5-10-1-4v-10l1-3 9-3 4-2v-2l-6 1-5 1 1-5h10v-3l-6-1 1-4 9-10 11-9 16-9 16-6 18-4z" fill="#FED9A7"/>
<path transform="translate(382,647)" d="m0 0 7 1 8 6 6 9 3 13v16l-4 40-1 20 2 16 4 13v3l17-5 25-4h40l25 4 16 4 1-5 4-16v-29l-4-40v-18l3-13 6-9 9-6h10l15 5 11 9 9 10 9 17 5 16 2 12v23l-3 14-8 17-8 11-11 13-9 8 4 4 13 10 13 12 10 13 8 16 5 15 2 13v13l-3 17-5 14-7 13-9 12-6 7h-2v2l-11 9-11 8-18 10-15 6-16 5-24 5-9 1h-37l-21-3-17-4-18-6-21-10-15-10-11-9-12-12-10-14-8-16-5-19-1-8v-12l3-17 6-16 8-14 8-10 5-6 22-18-12-12-9-10-9-14-6-13-3-14v-24l3-15 4-12 7-14 7-9 9-9 10-6zm169 4-8 5-5 8-2 8v23l3 29 1 13v23l-3 15-9 23-3 1 1-7 1-4-8-3-20-4-21-2h-18l-27 3-21 5-2 1 1 5 1 7-3-1-9-23-3-15v-26l4-40v-22l-3-10-6-8-5-3h-8l-13 4-13 11-5 5-5 9-5 10-6 21v32l3 11 9 16 9 12 18 18 2 1 1 5h-5l-14 11-12 11-11 15-8 17-4 14-1 8v14l3 17 6 15 9 15 11 12 10 10 16 11 21 11 20 7 21 5 14 2 16 1h14l26-3 25-6 20-8 17-9 14-10 14-13 10-13 6-10 6-15 3-15v-19l-3-14-5-13-7-13-8-10-13-13-13-10-5-3-4-1 2-4 15-15 10-11 9-16 4-10 2-10v-27l-5-19-8-16-6-9-8-7-9-6-7-3z" fill="#492D02"/>
<path transform="translate(556,653)" d="m0 0h9l11 6 13 13 8 14 5 13 3 13v27l-4 16-9 17-9 11-6 7-8 7-7 8h-13l-7-3 1-5 10-22 6-18 3-16 1-10v-13l-2-23-5-17-4-2-3-8v-8l5-6z" fill="#FDD9A7"/>
<path transform="translate(371,654)" d="m0 0h11l6 7v7l-3 8-4 1-3 9-3 16-1 13v18l3 21 5 17 11 25 2 6-5 3-4 1h-10l-25-25-10-15-7-14-2-8v-32l6-21 5-10 5-9 5-5 9-8 6-4z" fill="#FDD9A7"/>
<path transform="translate(373,706)" d="m0 0h1v27l3 21 5 17 11 25 2 6-5 3-4 1h-10v-1l5-1-7-7-11-14-7-11-5-11-3-11v-18l4-11 9-10 7-4z" fill="#E7B470"/>
<path transform="translate(563,705)" d="m0 0 9 3 8 6 6 9 3 9v16l-4 15-8 15-10 13-9 10-3 4-9-1-4-2 1-5 10-22 6-18 3-16 1-10z" fill="#E7B470"/>
<path transform="translate(459,917)" d="m0 0 10 3h8l9-3 5 1 6 11 5 4 3 1h9l5-2 2 1-1 4-5 3h-12l-10 11-9 5-4 1h-12l-10-4-9-7-4-4h-10l-6-3-2-4 4-1 4 2 9-1 8-5 4-7 2-5z" fill="#432800"/>
<path transform="translate(508,808)" d="m0 0h13l13 5 12 8 12 11 11 14 3 6-1 2-4-1 2 4v5l-5-1-7-11-10-11-14-9-11-4h-7l-8 1v-4l6-3h10l14 5 13 9 8 8-6-7v-2l-4-2-9-8-11-6-7-3-14-1-1-4z" fill="#4A2E04"/>
<path transform="translate(422,808)" d="m0 0h13l1 5-14 1-10 4-11 7-10 9-4 5 12-10 13-7 8-2h9l7 3v4l-15-1-10 3-10 6-10 9-8 9-6 9-4-1 1-5 1-2-4-1 1-5 10-13 13-13 10-7 13-6z" fill="#452A02"/>
<path transform="translate(381,677)" d="m0 0 4 1-4 16-2 13v32l4 20 6 17 10 22-1 3-4-1-11-24-6-18-3-15-1-10v-18l2-20 4-15z" fill="#432800"/>
<path transform="translate(552,677)" d="m0 0 5 1 5 17 2 23v13l-3 21-5 18-11 25-3 5-4-1 2-6 9-20 6-19 3-17v-29l-3-20-3-8z" fill="#422800"/>
<path transform="translate(517,856)" d="m0 0h11l9 4 8 7 6 9-1 4-4-1-7-10-9-6-2-1h-11l-9 5-7 9-4 13h-4v-8l7-14 9-8z" fill="#492D02"/>
<path transform="translate(419,855)" d="m0 0h13l10 4 7 7 6 12 1 9-4 1-2-6-4-10-6-7-8-4h-12l-9 5-7 9-2 4h-4l1-7 7-9 8-6z" fill="#4A2D02"/>
<path transform="translate(513,820)" d="m0 0h10l14 5 13 9 9 9 8 11 2 3v5l-5-1-7-11-10-11-14-9-11-4h-7l-8 1v-4z" fill="#462A01"/>
<path transform="translate(420,820)" d="m0 0h9l7 3v4l-15-1-10 3-10 6-10 9-8 9-6 9-4-1 1-5 7-9 18-18 13-7z" fill="#452A01"/>
<path transform="translate(488,926)" d="m0 0h2l5 8 3 2-2 5-7 7-9 4h-4v-14l8-5z" fill="#FAD5A1"/>
<path transform="translate(458,929)" d="m0 0 3 1 4 5 7 3v14l-10-2-9-7-4-4v-2l6-4z" fill="#FBD6A3"/>
<path transform="translate(509,813)" d="m0 0h12l11 5 11 7 16 16-1 2-9-9-14-9-12-4h-10l-4 1-2-3 1-5z" fill="#FBD5A2"/>
<path transform="translate(422,813)" d="m0 0h11l1 1v5l-2 2h-12l-10 3-11 6-13 11v-3l12-12 15-10z" fill="#FBD5A1"/>
<path transform="translate(380,874)" d="m0 0 14 1 1 4-5 1-12-1v-4z" fill="#462A01"/>
<path transform="translate(555,876)" d="m0 0h16l1 3-1 1-17 1z" fill="#462B01"/>
<path transform="translate(555,882)" d="m0 0 10 3 3 2-1 4-5-1-8-4z" fill="#4A2E03"/>
<path transform="translate(390,881)" d="m0 0 5 1-1 3-8 4h-5v-4z" fill="#472B02"/>
<path transform="translate(401,824)" d="m0 0m-1 1m-2 1 2 1-2 4-11 9-2 1 2-4z" fill="#F9D29C"/>
<path transform="translate(394,833)" d="m0 0m-1 1m-1 1m-2 1 2 1-13 13v-3l5-6z" fill="#9F7841"/>
<path transform="translate(384,879)" d="m0 0 9 1-3 2-7 2z" fill="#F8D09A"/>
</svg>
