<?xml version="1.0" encoding="UTF-8"?>
<svg version="1.1" viewBox="0 0 968 2048" width="1400" height="2960" xmlns="http://www.w3.org/2000/svg">
<path transform="translate(459,643)" d="m0 0h13l8 4 6 7 2 8v8l5 2 8 7 2 5-1 10 5 10 2 7 1 10-3 12 1 4 10 11 7 10 9 19 2 9 5 1 17 8 13 8 12 9 14 12 9 10 9 14 6 14 4 15 1 8v13l-3 17-5 14-7 13-9 12-6 7h-2v2l-11 9-11 8-18 10-15 6-16 5-24 5-9 1h-37l-21-3-17-4-18-6-21-10-15-10-11-9-12-12-10-14-8-16-5-19-1-8v-12l3-17 6-16 8-14 8-10 5-6 11-9 13-10 18-10 13-6 7-12 9-11 10-9 6-4-2-9-3-10v-16l4-9 5-7v-2l-6-4-4-5-1-3v-11l5-10 5-4 8-1 2-6 8-7z" fill="#AD7623"/>
<path transform="translate(400,845)" d="m0 0 11 3 11 6 9 8 13 18 8 6h6l-1-3-7-3-7-8-4-6v-2l21-5 9-1h22l18 3-2 5-8 11-5 4-6 1v4l9-2 6-5 10-14 8-9 13-8 5-2 4 1-8 5-9 6-4 2v2h-2l-2 4-7 11-6 10-5 5-4 1 1 3 5-1 6-5 10-17 5-6 5 1 11 7 10 9 7 9 8 15 1 4v14l-6 12-8 7-9 3h-11l-12-3-10-4-4-7-10-2-9-10-2-6-7-2-8 1-4 1-1 5-8 9-5 5-8 7-14 7-8 2h-17l-9-4-8-7-4-9-1-5v-7l3-11 5-10 9-10 9-8 13-8 5-2 8 13 6 9 5 4 6 1v-4l-5-1-5-5-10-17-9-10-8-6-11-5-4-2z" fill="#FFDBAA"/>
<path transform="translate(459,643)" d="m0 0h13l8 4 6 7 2 8v8l5 2 8 7 2 5-1 10 5 10 2 7 1 10-3 12 1 4 10 11 7 10 9 19 2 9 5 1 17 8 13 8 12 9 14 12 9 10 9 14 6 14 4 15 1 8v13l-3 17-5 14-7 13-9 12-6 7h-2v2l-11 9-11 8-18 10-15 6-16 5-24 5-9 1h-37l-21-3-17-4-18-6-21-10-15-10-11-9-12-12-10-14-8-16-5-19-1-8v-12l3-17 6-16 8-14 8-10 5-6 11-9 13-10 18-10 13-6 7-12 9-11 10-9 6-4-2-9-3-10v-16l4-9 5-7v-2l-6-4-4-5-1-3v-11l5-10 5-4 8-1 2-6 8-7zm37 53-8 9-10 14-4 8 7-1v3l-33 16-19 12-12 11-7 8-10 17-3 9h-4l2-8-5 1-21 12-14 11-11 10-10 13-9 17-5 17-1 8v14l3 17 6 15 8 13 8 10 13 13 15 11 23 12 27 9 21 4 23 2h14l26-3 21-5 17-6 19-9 12-8 10-8 10-9 11-14 9-17 4-12 2-11v-18l-3-15-5-13-6-11-9-12-13-13-16-12-18-10-11-5-3 1v5l-3 1-3-16-6-15-6-11-8-10-7-7-3 3-7 11 10 10 10 14 4 7v5l-4-1-2-6-8-12-9-10-4-3-12 14-7 6 5 5 6 4h2l-1 3-5-1-10-7-4 2-13 10h-5l1-4 4-2 12-9 12-11 7-7 12-16-1-2-9 8-18 13-16 12-19 13-12 8h-4l1-3 15-10 17-12 16-12 14-10 10-8 7-6 7-10 2-5v-7l-4-13-3-5z" fill="#472C02"/>
<path transform="translate(472,913)" d="m0 0 9 1 5 3 2 6 7 8 10 2 4 7 3 20v16l-3 7-5 3-10-1-12-5h-11l-12 5-4 1h-7l-7-3-3-6v-14l3-15 3-8 7-6 5-5 8-9 1-4z" fill="#482C02"/>
<path transform="translate(485,675)" d="m0 0h3v2l-9 7-10 9-10 13-8 14-4 16-2 6-6 4-4-1-5-17v-9l3-9 8-11 7-7 11-7 16-7z" fill="#AD7623"/>
<path transform="translate(464,647)" d="m0 0 10 2 7 6 2 6v10l-20 7-2-5 1-11 5-5v-2l-5 1-3 3-2 8 1 14-8 5h-2l-3-8v-16l4-8 7-5z" fill="#AD7623"/>
<path transform="translate(500,956)" d="m0 0 5 1 2 4v12l-2 7-1 1h-7l-15-6h-11l-11 5-4 1h-9l-4-3v-17l5-4 6 1 8 10 7 3h10l8-4 9-9z" fill="#FEFDFB"/>
<path transform="translate(492,679)" d="m0 0 4 1 2 3v5l-11 12-10 13-7 12-3 6-16 7 2-11 4-10 7-11 9-11 7-7z" fill="#FFDBAA"/>
<path transform="translate(491,758)" d="m0 0 7 6 7 8 8 13 2 6-7 2h-12l-11-3v-3l-5-2-8-6 5-6 6-5z" fill="#FFDBAA"/>
<path transform="translate(494,743)" d="m0 0v3l-9 12-9 10-8 8-17 13-3 1v5l-10 5h-17l-3-2 14-9 20-14 38-28z" fill="#FFDBAA"/>
<path transform="translate(472,913)" d="m0 0 9 1 5 3 2 6 8 9-5 4-10 4-3 1h-8l-10-4-7-3 4-6 7-8 1-4z" fill="#AD7623"/>
<path transform="translate(500,956)" d="m0 0 5 1 2 4v12l-2 7-1 1h-7l-15-6-6-1 3-3 8-4 9-9z" fill="#FEFCF9"/>
<path transform="translate(469,652)" d="m0 0h9l4 5 1 4v10l-20 7-2-5 1-11 5-5v-4z" fill="#FFDBAA"/>
<path transform="translate(552,845)" d="m0 0 4 1-1 4-16 6-10 6-8 8-12 20-7 6-5 1-2-4 6-3 5-6 8-14 6-8h2v-2l11-8 11-5z" fill="#4A2E03"/>
<path transform="translate(391,846)" d="m0 0 9 1 12 5 9 6 9 9 8 13 6 10 7 3v4h-6l-8-7-10-17-9-10-10-6-16-6-2-4z" fill="#482D02"/>
<path transform="translate(399,841)" d="m0 0h7l11 4 11 7 7 7 13 18 5 4 5 2v4h-6l-8-6-9-12-8-10-10-7-8-4-10-3z" fill="#4A2E03"/>
<path transform="translate(541,840)" d="m0 0h6l1 3-1 2-8 2-14 7-9 8-13 18-8 6-5 1-2-1v-4l8-3 6-7 10-14 7-7 14-8z" fill="#492D02"/>
<path transform="translate(498,936)" d="m0 0 5 2 3 12v2l-9 1-8 6-4 5-7 3-1-8 8-5 6-9 3-7z" fill="#FFDBAA"/>
<path transform="translate(451,939)" d="m0 0h6l8 15 8 4v10l-8-3-10-11-6-1h-4l2-8z" fill="#FFDBAA"/>
<path transform="translate(439,663)" d="m0 0h1l2 18 3 8-4 4-6-1-5-5-2-4 1-10 4-7z" fill="#AD7623"/>
<path transform="translate(540,883)" d="m0 0h5l-1 5-18 7-15 8-9 7-3 3h-2l-1-4 5-5 9-7 19-10z" fill="#503205"/>
<path transform="translate(406,883)" d="m0 0 10 3 21 10 12 9 4 4-1 5-3-1-5-5-10-7-19-9-10-4v-4z" fill="#503205"/>
<path transform="translate(432,979)" d="m0 0 9 9 6 1 5-1 1 4-3 2h-9l-6-4-4-5v-5z" fill="#402700"/>
<path transform="translate(514,978)" d="m0 0h4l-1 7-6 7-2 1h-9v-4l9-2 3-4z" fill="#402700"/>
<path transform="translate(472,913)" d="m0 0 9 1 5 3-1 3-14-1-5 2-2-3 3-3z" fill="#4C2F03"/>
<path transform="translate(317,796)" d="m0 0 5 5 9 11v4l-4-1-12-15v-3z" fill="#492E03"/>
<path transform="translate(611,787)" d="m0 0 3 1-1 4-13 11-4 1v-4l12-11z" fill="#472C02"/>
<path transform="translate(618,799)" d="m0 0h3l-1 5-14 8-3-1 1-4z" fill="#4D3004"/>
<path transform="translate(469,921)" d="m0 0h8l6 2v4l-12-1-5 1v-4z" fill="#402700"/>
<path transform="translate(305,810)" d="m0 0 6 1 9 5 2 2v3l-5-1-12-7z" fill="#452B01"/>
<path transform="translate(437,907)" d="m0 0 4 1 9 7-1 4-4-1-9-7z" fill="#583807"/>
<path transform="translate(509,907)" d="m0 0h4l-1 4-8 7h-4l1-5z" fill="#4D3104"/>
</svg>
