<?xml version="1.0" encoding="UTF-8"?>
<svg version="1.1" viewBox="0 0 968 2048" width="1400" height="2960" xmlns="http://www.w3.org/2000/svg">
<path transform="translate(449,775)" d="m0 0h40l25 4 22 6 4-6 4-2 9 1 11 6 18 13 14 12 19 19 10 13 12 20 8 18 6 18 5 23 2 15v30l-3 14-4 10-8 9-8 4h-16l-11-4-9-8-8-13-3-6v-2l-21 14-15 8-18 7-24 6-20 3h-37l-21-3-17-4-18-6-21-10-15-10-6-5h-2l-8 15-9 10-7 5-13 3h-7l-11-4-7-7-6-13-2-9-1-10v-19l2-19 5-23 8-24 8-17 10-16 10-13 15-16 10-9 17-13 15-10 9-4 7 1 5 5 1 2 16-4 21-4z" fill="#AD7623"/>
<path transform="translate(449,775)" d="m0 0h40l25 4 22 6 4-6 4-2 9 1 11 6 18 13 14 12 19 19 10 13 12 20 8 18 6 18 5 23 2 15v30l-3 14-4 10-8 9-8 4h-16l-11-4-9-8-8-13-3-6v-2l-21 14-15 8-18 7-24 6-20 3h-37l-21-3-17-4-18-6-21-10-15-10-6-5h-2l-8 15-9 10-7 5-13 3h-7l-11-4-7-7-6-13-2-9-1-10v-19l2-19 5-23 8-24 8-17 10-16 10-13 15-16 10-9 17-13 15-10 9-4 7 1 5 5 1 2 16-4 21-4zm11 4-27 3-24 6-19 7-18 10-16 12-13 12-11 15-8 17-4 14-1 8v14l3 17 6 15 9 15 11 12 10 10 16 11 21 11 20 7 21 5 14 2 16 1h14l26-3 21-5 17-6 19-9 15-10 14-12 9-10 9-14 5-10 4-12 2-11v-18l-3-15-5-13-7-13-8-10-13-13-13-10-17-10-14-7-26-8-24-4-13-1z" fill="#472C02"/>
<path transform="translate(465,868)" d="m0 0h27l17 3 15 5 14 8 11 10 7 10 8 16 1 8-2 12-7 10-5 4-7 3-11 1-14-3-12-5-11-7-7-7-5-6v-2l-5-2h-9l-6 4-9 10-7 8-11 7-14 5-4 1h-13l-10-3-10-9-4-10v-14l4-11 6-10 12-12 15-10 16-7 17-5z" fill="#FFDBAA"/>
<path transform="translate(546,781)" d="m0 0 9 3 11 7 17 13 12 11 9 8 7 8 11 14 9 15 9 19 7 22 4 18 2 13v35l-4 15-6 10-8 5-9 1-10-2-8-4-8-9-8-15 1-5 11-12 9-14 6-12 4-13 2-10 2 3 4 27 2 26v27l4-1v-21l-2-31-5-30-5-19-4-18-6-15-8-13-8-10-7-7-14-11-10-7-18-10-9-4 1-4z" fill="#AD7623"/>
<path transform="translate(390,781)" d="m0 0h6l3 3 1 3-16 7-16 9-13 10-12 10-11 14-9 16-6 18-3 16-5 21-4 27-1 11v38l3-1 1-38 4-33 2-10 2 3 4 16 8 16 7 11 11 12 3 3-1 5-7 13-7 9-6 4-10 3h-10l-8-4-7-8-5-15-1-7v-28l4-25 5-19 7-19 11-21 10-14 11-13 13-13 11-9 13-10 14-9z" fill="#AD7623"/>
<path transform="translate(314,902)" d="m0 0 2 3 4 16 8 16 7 11 11 12 3 3-1 5-7 13-7 9-6 4-10 3h-7l-4-9 1-43 4-33z" fill="#FFDBAA"/>
<path transform="translate(625,902)" d="m0 0 2 3 4 27 2 26v25l1 3-4 11-4 1-10-2-8-4-8-9-8-15 1-5 11-12 9-14 6-12 4-13z" fill="#FFDBAA"/>
<path transform="translate(488,945)" d="m0 0 5 1 6 16 7 20v4l-5-1-11-4-5-1h-19l-15 4-5 1-1-4 7-19 8-16 5 1 3 1h11z" fill="#492C02"/>
<path transform="translate(457,830)" d="m0 0 4 1-2 6-9 13-10 10-10 7-15 7-20 6-5 1h-7l1-5 20-5 16-6 11-6 10-8 8-9 7-11z" fill="#492D02"/>
<path transform="translate(485,828)" d="m0 0 4 1 8 13 9 10 10 8 19 9 15 5 10 2 1 5-11-1-17-5-19-9-10-8-10-10-7-11-3-6z" fill="#482C02"/>
<path transform="translate(495,826)" d="m0 0 3 1 7 11 11 11 14 9 16 7 10 4-1 4-8-1-19-8-11-7-10-9-7-7-7-10 1-4z" fill="#492D02"/>
<path transform="translate(447,828)" d="m0 0h4l-1 7-8 10-8 8-14 10-16 7-9 3h-6v-4l10-4 17-7 11-7 12-11 7-10z" fill="#492D02"/>
<path transform="translate(448,915)" d="m0 0 5 1-1 4-4 5-10 6-10 3h-16l-14-4-6-3v-4h6l11 4 16 1 11-3 8-5z" fill="#543506"/>
<path transform="translate(495,914)" d="m0 0h4l6 7 8 4 8 2h13l12-3 4-2 5 1-1 4-9 4-8 2h-19l-12-4-9-7-3-4z" fill="#523305"/>
<path transform="translate(452,829)" d="m0 0 4 1-2 5-6 9-9 10-11 8-15 7-20 6-2-1 10-4 17-7 12-8 12-11 8-11z" fill="#FFDBAA"/>
<path transform="translate(490,829)" d="m0 0 4 2 9 12 11 11 14 9 19 8 6 2v1l-8-1-15-5-17-9-12-11-8-10-3-6z" fill="#FFDBAA"/>
<path transform="translate(490,955)" d="m0 0 2 2 7 19v2l-21-4-1-6 1-2 7-4z" fill="#FFDBAA"/>
<path transform="translate(460,955)" d="m0 0 3 4 5 5 5 3v7l-18 4h-3l1-6z" fill="#FFDBAA"/>
<path transform="translate(449,926)" d="m0 0 4 1-2 5-8 7-5 1v-4z" fill="#543506"/>
<path transform="translate(495,925)" d="m0 0 4 1 11 10v3h-5l-10-9z" fill="#503205"/>
</svg>
